<?xml version="1.0" standalone="no"?>
<!DOCTYPE svg PUBLIC "-//W3C//DTD SVG 20010904//EN"
 "http://www.w3.org/TR/2001/REC-SVG-20010904/DTD/svg10.dtd">
<svg version="1.0" xmlns="http://www.w3.org/2000/svg"
 width="700.000000pt" height="700.000000pt" viewBox="0 0 700.000000 700.000000"
 preserveAspectRatio="xMidYMid meet">
<metadata>
Created by potrace 1.11, written by Peter Selinger 2001-2013
</metadata>
<g transform="translate(0.000000,700.000000) scale(0.100000,-0.100000)"
fill="#000000" stroke="none">
<path d="M0 3500 l0 -3500 3500 0 3500 0 0 3500 0 3500 -3500 0 -3500 0 0
-3500z m2395 1491 c247 -39 453 -99 613 -180 34 -17 64 -31 67 -31 3 0 5 54 5
120 l0 120 333 0 332 0 415 -1110 c228 -610 417 -1110 421 -1110 3 0 729 1914
837 2208 3 9 80 12 338 12 l334 0 -2 -1642 -3 -1643 -215 0 -215 0 -5 1431 -5
1431 -299 -796 c-164 -438 -353 -939 -419 -1114 l-120 -317 -226 2 -226 3
-420 1117 -420 1117 -3 -121 -3 -122 50 -101 c122 -246 174 -508 174 -880 0
-381 -68 -705 -194 -931 l-29 -51 0 -336 0 -337 -215 0 -215 0 0 125 c0 69 -2
125 -4 125 -1 0 -50 -22 -107 -49 -348 -162 -688 -205 -1579 -199 l-415 3 -3
1643 -2 1643 642 -4 c603 -3 652 -5 783 -26z"/>
<path d="M1420 3381 l0 -1281 313 0 c171 0 364 5 427 10 292 25 519 97 685
215 69 49 170 151 209 210 l26 40 0 806 0 807 -43 58 c-126 170 -319 291 -562
353 -177 44 -274 53 -672 58 l-383 6 0 -1282z"/>
</g>
</svg>
